<svg width="472" height="164" viewBox="0 0 472 164" fill="none" xmlns="http://www.w3.org/2000/svg">
<path d="M29.1 16.175H18.525V148.025H29.1V16.175ZM46.875 149.6C46.875 153.5 45.45 156.875 42.6 159.725C39.75 162.575 36.375 164 32.475 164H0.75V0.19999H32.475C36.375 0.19999 39.75 1.62499 42.6 4.47499C45.45 7.32499 46.875 10.775 46.875 14.825V149.6ZM60.2959 164V0.19999H97.6459V16.175H78.0709V73.775H94.4959V89.975H78.0709V148.025H97.6459V164H60.2959ZM123.732 164L114.957 153.2C113.607 151.4 112.407 149.825 111.357 148.475C110.457 146.975 109.707 145.475 109.107 143.975C108.657 142.325 108.282 140.525 107.982 138.575C107.832 136.475 107.757 134 107.757 131.15V0.19999H125.532V142.4H135.657V0.19999H153.432V131.15C153.432 134 153.282 136.475 152.982 138.575C152.832 140.525 152.457 142.325 151.857 143.975C151.257 145.475 150.507 146.975 149.607 148.475C148.707 149.825 147.582 151.4 146.232 153.2L137.457 164H123.732ZM166.863 164V0.19999H204.213V16.175H184.638V73.775H201.063V89.975H184.638V148.025H204.213V164H166.863ZM214.324 164V0.19999H232.099V148.025H250.549V164H214.324ZM288.152 148.025V16.175H277.802V148.025H288.152ZM305.702 148.7C305.702 153.5 304.277 157.25 301.427 159.95C298.727 162.65 295.052 164 290.402 164H275.327C270.677 164 266.927 162.65 264.077 159.95C261.377 157.25 260.027 153.5 260.027 148.7V15.5C260.027 11 261.377 7.32499 264.077 4.47499C266.927 1.62499 270.677 0.19999 275.327 0.19999H290.402C295.052 0.19999 298.727 1.62499 301.427 4.47499C304.277 7.32499 305.702 11 305.702 15.5V148.7ZM336.909 89.975V164H319.134V0.19999H350.409C354.459 0.19999 357.909 1.62499 360.759 4.47499C363.759 7.32499 365.259 10.775 365.259 14.825V76.25C365.259 80.15 363.909 83.45 361.209 86.15C358.509 88.7 355.134 89.975 351.084 89.975H336.909ZM347.484 73.775V16.175H336.909V73.775H347.484ZM377.581 164V0.19999H414.931V16.175H395.356V73.775H411.781V89.975H395.356V148.025H414.931V164H377.581ZM456.542 0.19999C460.592 0.19999 464.042 1.62499 466.892 4.47499C469.742 7.32499 471.167 10.7 471.167 14.6V69.05C471.167 70.25 471.092 71.6 470.942 73.1C470.792 74.45 470.342 75.8 469.592 77.15C468.992 78.35 468.017 79.4 466.667 80.3C465.317 81.2 463.517 81.8 461.267 82.1C465.917 82.85 468.692 84.5 469.592 87.05C470.642 89.45 471.167 91.85 471.167 94.25V164H453.392V89.975H442.817V164H425.042V0.19999H456.542ZM453.392 73.775V16.175H442.817V73.775H453.392Z" fill="url(#paint0_linear_54_13)"/>
<defs>
<linearGradient id="paint0_linear_54_13" x1="564.85" y1="108" x2="2.49134" y2="108" gradientUnits="userSpaceOnUse">
<stop offset="0.2" stop-color="#F47B2A"/>
<stop offset="1" stop-color="#FFC76B"/>
</linearGradient>
</defs>
</svg>
