<svg width="775" height="255" viewBox="0 0 775 255" fill="none" xmlns="http://www.w3.org/2000/svg">
<path d="M0.5 255V0.199984H58.6V25.05H28.15V114.65H53.7V139.85H28.15V255H0.5ZM145.378 0.199984V231.2C145.378 238.667 143.161 244.5 138.728 248.7C134.528 252.9 128.811 255 121.578 255H98.1281C90.6615 255 84.8281 252.9 80.6281 248.7C76.4281 244.5 74.3281 238.667 74.3281 231.2V0.199984H101.978V230.15H117.728V0.199984H145.378ZM166.271 255V0.199984H193.921V230.15H222.621V255H166.271ZM238.391 255V0.199984H266.041V230.15H294.741V255H238.391ZM387.023 172.4C387.023 170.3 386.79 168.55 386.323 167.15C385.856 165.75 385.04 164.117 383.873 162.25L347.473 101.35C345.606 98.0833 344.44 95.2833 343.973 92.95C343.74 90.6167 343.623 88.05 343.623 85.25V21.55C343.623 14.0833 345.723 8.71665 349.923 5.44998C354.123 1.94998 359.956 0.199984 367.423 0.199984H390.873C398.34 0.199984 404.173 1.94998 408.373 5.44998C412.573 8.71665 414.673 14.0833 414.673 21.55V82.8H387.023V25.05H371.273V82.8C371.273 84.9 371.506 86.7667 371.973 88.4C372.673 89.8 373.49 91.3167 374.423 92.95L408.723 150.35C410.123 152.45 411.173 154.317 411.873 155.95C412.573 157.583 413.156 159.217 413.623 160.85C414.09 162.483 414.323 164.35 414.323 166.45C414.556 168.55 414.673 171.117 414.673 174.15V233.65C414.673 241.117 412.573 246.6 408.373 250.1C404.173 253.367 398.34 255 390.873 255H367.423C359.956 255 354.123 253.367 349.923 250.1C345.723 246.6 343.623 241.117 343.623 233.65V172.4H371.273V230.15H387.023V172.4ZM499.682 0.199984V25.05H479.382V255H449.632V25.05H429.332V0.199984H499.682ZM514.563 22.95C514.563 16.65 516.779 11.2833 521.213 6.84998C525.646 2.41665 531.013 0.199984 537.313 0.199984H563.563C569.863 0.199984 575.229 2.41665 579.663 6.84998C584.096 11.2833 586.313 16.65 586.313 22.95V255H558.663V139.85H542.213V255H514.563V22.95ZM558.663 25.05H542.213V114.65H558.663V25.05ZM678.239 231.2C678.239 238.667 676.139 244.5 671.939 248.7C667.739 252.9 661.906 255 654.439 255H630.989C623.523 255 617.689 252.9 613.489 248.7C609.289 244.5 607.189 238.667 607.189 231.2V24C607.189 17 609.289 11.2833 613.489 6.84998C617.689 2.41665 623.523 0.199984 630.989 0.199984H654.439C661.906 0.199984 667.739 2.41665 671.939 6.84998C676.139 11.2833 678.239 17 678.239 24V82.8H650.589V25.05H634.839V230.15H650.589V172.4H678.239V231.2ZM725.074 0.199984V114.65H730.674L747.124 0.199984H774.424L755.524 116.05C759.024 116.517 761.707 117.45 763.574 118.85C765.44 120.25 766.724 121.883 767.424 123.75C768.357 125.617 768.824 127.6 768.824 129.7C769.057 131.8 769.174 133.783 769.174 135.65V255H741.524V139.85H725.074V255H697.424V0.199984H725.074Z" fill="url(#paint0_linear_54_12)"/>
<defs>
<linearGradient id="paint0_linear_54_12" x1="784.326" y1="164" x2="-118.843" y2="164" gradientUnits="userSpaceOnUse">
<stop stop-color="#F47B2A"/>
<stop offset="1" stop-color="#F7C36E"/>
</linearGradient>
</defs>
</svg>
